<svg xmlns="http://www.w3.org/2000/svg" viewBox="0 0 486 492.95"><defs><style>.cls-1{fill:#fff;}.cls-2,.cls-3,.cls-4{fill:none;stroke:#821334;stroke-linecap:round;stroke-miterlimit:10;}.cls-2{stroke-width:25px;}.cls-3{stroke-width:23.97px;}.cls-4{stroke-width:21.04px;}.cls-5{opacity:0.05;}</style></defs><g id="Hexa_Shape" data-name="Hexa Shape"><path id="Shape" class="cls-1" d="M497,303.27V196.73a71.38,71.38,0,0,0-14.15-42.66L417.93,67a71.42,71.42,0,0,0-35.68-25.39L275.55,7.82a71.4,71.4,0,0,0-43.1,0L125.75,41.61A71.42,71.42,0,0,0,90.07,67L25.15,154.07A71.38,71.38,0,0,0,11,196.73V303.27a71.38,71.38,0,0,0,14.15,42.66L90.07,433a71.42,71.42,0,0,0,35.68,25.39l106.7,33.79a71.4,71.4,0,0,0,43.1,0l106.7-33.79A71.42,71.42,0,0,0,417.93,433l64.92-87.07A71.38,71.38,0,0,0,497,303.27Z" transform="translate(-11 -4.49)"/></g><g id="Face"><path id="Smile" class="cls-2" d="M93.13,264.94s3,70.18,44.08,111.31,110.32,43.08,110.32,43.08" transform="translate(-11 -4.49)"/><line id="Nose" class="cls-3" x1="346.23" y1="150.74" x2="192.14" y2="304.83"/><ellipse id="Eye" class="cls-4" cx="183.88" cy="149.08" rx="47.62" ry="58.07"/><ellipse id="Eye-2" data-name="Eye" class="cls-4" cx="345.88" cy="312.08" rx="47.62" ry="58.07"/></g><g id="Darken"><path id="Cut" class="cls-5" d="M488,315.11V185.78a38.1,38.1,0,0,0-7.17-22.25L405.68,59.08a37.61,37.61,0,0,0-3.82-4.51L103.75,444.81a38,38,0,0,0,16.62,10.95l121.25,39.79a38.14,38.14,0,0,0,23.76,0l121.25-39.79a38.1,38.1,0,0,0,19.05-13.95l75.15-104.45A38.13,38.13,0,0,0,488,315.11Z" transform="translate(-11 -4.49)"/></g></svg>